<?xml version="1.0" encoding="UTF-8"?>
<svg width="306px" height="322px" viewBox="0 0 306 322" version="1.1" xmlns="http://www.w3.org/2000/svg" xmlns:xlink="http://www.w3.org/1999/xlink">
    <!-- Generator: Sketch 48.2 (47327) - http://www.bohemiancoding.com/sketch -->
    <title>Logo</title>
    <desc>Created with Sketch.</desc>
    <defs></defs>
    <g id="Page-1" stroke="none" stroke-width="1" fill="none" fill-rule="evenodd">
        <g id="Logo" fill="#323B4A" fill-rule="nonzero">
            <polygon id="Shape" points="20.81 322 0 322 100.42 0 201.42 322 180.61 322 100.42 67.34"></polygon>
            <path d="M305.28,231.42 C305.432788,214.405655 300.64974,197.711879 291.51,183.36 C282.617558,169.141317 270.024592,157.609576 255.08,150 C280.105068,135.676154 295.529016,109.034443 295.49,80.2 C295.49,58.16 287.633333,39.2833333 271.92,23.57 C256.206667,7.85666667 237.123333,2.84217094e-14 214.67,0 L144.42,0 L144.42,44.2 L164.42,108.6 L164.42,20 L214.67,20 C230.751543,19.7637009 246.232551,26.1027512 257.53,37.55 C269.36,49.18 275.29,63.42 275.29,80.15 C275.29,96.88 269.24,111.2 257.42,123 C245.6,134.8 231.42,140.78 214.42,140.78 L214.42,161 C234.42,161 250.76,167.84 264.42,181.51 C278.08,195.18 285,211.81 285,231.4 C285,250.99 278.19,267.63 264.52,281.3 C253.28,292.54 240.053333,299.156667 224.84,301.15 L230.96,320.63 C248.96,317.516667 264.85,309.1 278.63,295.38 C296.396667,277.646667 305.28,256.326667 305.28,231.42 Z" id="Shape"></path>
        </g>
    </g>
</svg>