<svg id="Capa_1" enable-background="new 0 0 512.007 512.007" height="512" viewBox="0 0 512.007 512.007" width="512" xmlns="http://www.w3.org/2000/svg"><g><path d="m509.253 341.757c-2.541-2.534-6.163-3.305-9.41-2.311-2.221.685-4.526 1.031-6.854 1.031-6.191 0-12.013-2.411-16.391-6.79l-52.685-52.685-27.892-27.892c-10.523-10.522-24.514-16.317-39.395-16.317-14.88 0-28.87 5.795-39.394 16.317l-6.143 6.143-5.841-5.84c-4.269-4.27-9.945-6.621-15.983-6.621-4.923 0-9.593 1.587-13.469 4.48l-110.847-110.848c-2.929-2.927-7.677-2.929-10.607 0-2.929 2.93-2.929 7.678 0 10.607l110.662 110.662-15.426 15.426-231.378-231.378c-4.269-4.271-4.256-11.174 0-15.426 4.261-4.263 11.163-4.264 15.425 0l95.968 95.968c2.93 2.928 7.678 2.928 10.607 0 2.929-2.93 2.929-7.678 0-10.607l-95.967-95.969c-10.127-10.125-26.513-10.126-36.639 0-10.125 10.121-10.126 26.511-.001 36.64l231.568 231.569c-6.578 8.844-5.882 21.429 2.138 29.449l5.841 5.841-6.143 6.143c-10.521 10.522-16.316 24.513-16.316 39.394s5.795 28.871 16.316 39.394l27.892 27.892 23.645 23.645c2.93 2.928 7.678 2.928 10.607 0 2.929-2.93 2.929-7.678 0-10.607l-18.341-18.34 133.81-133.813 47.38 47.381c6.003 6.002 13.652 9.76 21.929 10.852l-122.958 122.958c-4.379 4.378-10.2 6.789-16.392 6.789-10.902 0-16.139-6.538-20.682-11.081-2.93-2.928-7.678-2.928-10.607 0-2.929 2.93-2.929 7.678 0 10.607 4.769 4.768 13.743 15.474 31.289 15.474 10.197 0 19.785-3.971 26.998-11.182l133.693-133.693c3.65-3.651 3.678-9.576-.007-13.262zm-257.347-45.752c34.68-34.68 33.122-34.212 37.36-34.212 2.031 0 3.94.791 5.376 2.228l5.841 5.84-42.738 42.738-5.839-5.841c-2.964-2.964-2.964-7.788 0-10.753zm22.285 124.112-22.587-22.588c-7.689-7.688-11.924-17.912-11.924-28.786s4.234-21.098 11.924-28.786c7.344-7.344 53.131-53.131 64.791-64.791 11.623-11.623 20.511-23.371 40.232-23.371 10.875 0 21.098 4.234 28.787 11.925l22.588 22.587z"/></g></svg>